<?xml version="1.0" encoding="UTF-8"?>
<svg xmlns="http://www.w3.org/2000/svg" xmlns:xlink="http://www.w3.org/1999/xlink" width="14px" height="14px" viewBox="0 0 14 14" version="1.1">
<g id="surface1">
<path style=" stroke:none;fill-rule:nonzero;fill:rgb(0%,0%,0%);fill-opacity:1;" d="M 5.25 7.582031 L 5.25 11.082031 C 5.25 11.402344 4.988281 11.667969 4.667969 11.667969 C 4.347656 11.667969 4.082031 11.402344 4.082031 11.082031 L 4.082031 7.582031 C 4.082031 7.261719 4.347656 7 4.667969 7 C 4.988281 7 5.25 7.261719 5.25 7.582031 Z M 9.332031 7 C 9.011719 7 8.75 7.261719 8.75 7.582031 L 8.75 11.082031 C 8.75 11.402344 9.011719 11.667969 9.332031 11.667969 C 9.652344 11.667969 9.917969 11.402344 9.917969 11.082031 L 9.917969 7.582031 C 9.917969 7.261719 9.652344 7 9.332031 7 Z M 7 7 C 6.679688 7 6.417969 7.261719 6.417969 7.582031 L 6.417969 11.082031 C 6.417969 11.402344 6.679688 11.667969 7 11.667969 C 7.320312 11.667969 7.582031 11.402344 7.582031 11.082031 L 7.582031 7.582031 C 7.582031 7.261719 7.320312 7 7 7 Z M 9.527344 1.96875 C 9.015625 1.863281 8.726562 1.148438 8.832031 0.632812 L 5.800781 0 C 5.691406 0.515625 5.144531 1.054688 4.628906 0.949219 L 1.40625 0.304688 L 1.167969 1.449219 L 12.59375 3.839844 L 12.832031 2.699219 Z M 12.25 4.667969 L 12.25 14 L 1.75 14 L 1.75 4.667969 Z M 11.082031 12.832031 L 11.082031 5.832031 L 2.917969 5.832031 L 2.917969 12.832031 Z M 11.082031 12.832031 "/>
</g>
</svg>
